<?xml version="1.0" encoding="UTF-8" standalone="no"?>
<svg
   xmlns:dc="http://purl.org/dc/elements/1.1/"
   xmlns:cc="http://creativecommons.org/ns#"
   xmlns:rdf="http://www.w3.org/1999/02/22-rdf-syntax-ns#"
   xmlns:svg="http://www.w3.org/2000/svg"
   xmlns="http://www.w3.org/2000/svg"
   xmlns:sodipodi="http://sodipodi.sourceforge.net/DTD/sodipodi-0.dtd"
   xmlns:inkscape="http://www.inkscape.org/namespaces/inkscape"
   viewBox="0 0 559.7295 716.08935"
   id="svg2"
   version="1.1"
   inkscape:version="0.91 r13725"
   sodipodi:docname="rpi_cast.svg"
   width="559.72949"
   height="716.08936"
   inkscape:export-filename="/home/tuxan/Imágenes/rpi_cast.svg.png"
   inkscape:export-xdpi="64.349228"
   inkscape:export-ydpi="64.349228">
  <metadata
     id="metadata36">
    <rdf:RDF>
      <cc:Work
         rdf:about="">
        <dc:format>image/svg+xml</dc:format>
        <dc:type
           rdf:resource="http://purl.org/dc/dcmitype/StillImage" />
        <dc:title></dc:title>
      </cc:Work>
    </rdf:RDF>
  </metadata>
  <defs
     id="defs34" />
  <sodipodi:namedview
     pagecolor="#ffffff"
     bordercolor="#666666"
     borderopacity="1"
     objecttolerance="10"
     gridtolerance="10"
     guidetolerance="10"
     inkscape:pageopacity="0"
     inkscape:pageshadow="2"
     inkscape:window-width="1920"
     inkscape:window-height="1020"
     id="namedview32"
     showgrid="false"
     showguides="true"
     inkscape:guide-bbox="true"
     inkscape:zoom="0.5"
     inkscape:cx="-304.00871"
     inkscape:cy="360.60266"
     inkscape:window-x="0"
     inkscape:window-y="31"
     inkscape:window-maximized="1"
     inkscape:current-layer="svg2"
     fit-margin-top="0"
     fit-margin-left="0"
     fit-margin-right="0"
     fit-margin-bottom="0" />
  <path
     d="m 150.98451,0.01069433 c -3.6193,0.11232 -7.5172,1.44929997 -11.938,4.93749997 -10.83,-4.17629997 -21.33,-5.62709997 -30.72,2.8751 -14.500004,-1.8808 -19.212004,2.0002 -22.782004,6.5311997 -3.183,-0.066 -23.819001,-3.272 -33.282001,10.844 -23.781,-2.814 -31.297,13.988 -22.781,29.656 -4.8569,7.519 -9.8895,14.947 1.4688,29.281 -4.018,7.9835 -1.5274,16.643996 7.9375,27.124996 -2.4979,11.223 2.4121,19.141 11.219,25.312 -1.6471,15.358 14.084,24.287 18.781,27.469 1.8037,8.9487 5.562901,17.393 23.531001,22.062 2.9632,13.336 13.762004,15.639 24.219004,18.438 -34.562004,20.09 -64.201005,46.523 -64.000005,111.38 l -5.0625,9.0312 C 7.945305,349.05269 0.03064,402.72518 0.03064,429.40128 0.03064,456.07738 0,716.08936 0,716.08936 l 280.18383,0 c 30.71695,0.21982 60.55028,-11.30365 88.42628,-40.05365 29.569,-10.387 51.421,-25.216 71.938,-40.844 14.001,-3.4959 67.085,-33.057 75.219,-96.188 5.4379,-15.667 11.546,-29.823 15.188,-49.531 55.754,-62.965 20.1,-140.43 -19.531,-164.53 l -5.07,-9.03 c 0.20067,-64.852 -29.438,-91.285 -64,-111.38 10.457,-2.7984 21.256,-5.1014 24.219,-18.438 17.968,-4.6698 21.728,-13.114 23.531,-22.062 4.6978,-3.1813 20.428,-12.111 18.781,-27.469 8.8067,-6.1716 13.717,-14.09 11.219,-25.312 9.4649,-10.481 11.956,-19.140996 7.9375,-27.124996 11.36,-14.328 6.32,-21.756 1.47,-29.275 8.51,-15.668 1,-32.47 -22.79,-29.656 -9.46,-14.116 -30.09,-10.91 -33.28,-10.844 -3.57,-4.5309997 -8.28,-8.4119997 -22.78,-6.5311997 -9.39,-8.50219997 -19.89,-7.05139997 -30.72,-2.875 -12.86,-10.148 -21.37,-2.0133 -31.09,1.0624 -15.57,-5.08769997 -19.13,1.881 -26.78,4.7187997 -16.98,-3.5880997 -22.14,4.224 -30.28,12.469 l -9.4688,-0.1875 c -25.611,15.093 -38.334,45.826 -42.844,61.625 -4.5121,-15.802 -17.206,-46.535 -42.812,-61.625 l -9.4688,0.1875 c -8.15,-8.245 -13.31,-16.0569997 -30.29,-12.469 -7.65,-2.8377997 -11.2,-9.80649967 -26.78,-4.7187997 -6.3797,-2.0185 -12.247,-6.21439997 -19.156,-5.99999997 z"
     id="path4"
     inkscape:connector-curvature="0"
     style="fill:#000000"
     sodipodi:nodetypes="cccccccccccccczcccccccccccccccccccccccccccccc" />
  <path
     d="m 99.994506,66.410494 c 67.948004,35.030996 107.450004,63.368996 129.090004,87.503996 -11.082,44.418 -68.896,46.445 -90.036,45.199 4.3284,-2.0147 7.9399,-4.4278 9.2205,-8.1357 -5.3045,-3.7698 -24.113,-0.39719 -37.244,-7.7742 5.0441,-1.045 7.4035,-2.063 9.7629,-5.7854 -12.406,-3.9567 -25.769004,-7.3664 -33.628004,-13.921 4.2413,0.0524 8.2012,0.9488 13.740004,-2.8927 -11.112004,-5.9882 -22.969004,-10.734 -32.181005,-19.887 5.745201,-0.14063 11.939001,-0.0568 13.740001,-2.1695 -10.170001,-6.3007 -18.751001,-13.308 -25.854001,-20.972 8.04,0.97052 11.435,0.13478 13.379,-1.2656 -7.6878,-7.8742 -17.418,-14.523 -22.057,-24.225996 5.9696,2.0575 11.431,2.8451 15.368,-0.1808 -2.6124,-5.8935 -13.805,-9.3696 -20.249,-23.142 6.2844,0.60938 12.95,1.3711 14.283,0 -2.917,-11.884 -7.922,-18.565 -12.831,-25.487 13.45,-0.2 33.828001,0.052 32.905001,-1.085 l -8.316501,-8.4973 c 13.138001,-3.5372 26.581001,0.56816 36.340005,3.6159 4.3819,-3.4577 -0.0776,-7.83 -5.4238,-12.294 11.165,1.4906 21.254,4.0574 30.373,7.5934 4.8724,-4.3993 -3.1639,-8.7987 -7.051,-13.198 17.249,3.2726 24.557,7.8707 31.82,12.475 5.2694,-5.0508 0.30166,-9.3433 -3.2543,-13.74 13.006,4.817 19.705,11.036 26.758,17.175 2.3912,-3.2271 6.0749,-5.5924 1.6272,-13.379 9.2342,5.3227 16.189,11.595 21.334,18.622 5.7134,-3.6379 3.4039,-8.613 3.4351,-13.198 9.5966,7.8065 15.687,16.114 23.142,24.226 1.5017,-1.0934 2.8166,-4.8017 3.9775,-10.667 22.895,22.212 55.246,78.157996 8.3165,100.339996 -39.94,-32.94 -87.64,-56.882996 -140.500004,-74.843996 z"
     id="path6"
     inkscape:connector-curvature="0"
     style="fill:#75a928" />
  <path
     d="m 460.52451,66.410494 c -67.94,35.033996 -107.44,63.363996 -129.08,87.503996 11.082,44.418 68.896,46.445 90.036,45.199 -4.3284,-2.0147 -7.9399,-4.4278 -9.2205,-8.1357 5.3045,-3.7698 24.113,-0.39719 37.244,-7.7742 -5.0441,-1.045 -7.4035,-2.063 -9.7629,-5.7854 12.406,-3.9567 25.769,-7.3664 33.628,-13.921 -4.2413,0.0524 -8.2012,0.9488 -13.74,-2.8927 11.112,-5.9882 22.969,-10.734 32.181,-19.887 -5.7452,-0.14063 -11.939,-0.0568 -13.74,-2.1695 10.17,-6.3007 18.751,-13.308 25.854,-20.972 -8.04,0.97052 -11.435,0.13478 -13.379,-1.2656 7.6878,-7.8742 17.418,-14.523 22.057,-24.225996 -5.9696,2.0575 -11.431,2.8451 -15.368,-0.1808 2.6124,-5.8935 13.805,-9.3696 20.249,-23.142 -6.2844,0.60938 -12.95,1.3711 -14.283,0 2.9223,-11.889 7.9275,-18.57 12.836,-25.492 -13.45,-0.19973 -33.828,0.05235 -32.905,-1.0848 l 8.3165,-8.4973 c -13.138,-3.5372 -26.581,0.56816 -36.34,3.6159 -4.3819,-3.4577 0.0776,-7.83 5.4238,-12.294 -11.165,1.4906 -21.254,4.0574 -30.373,7.5934 -4.8724,-4.3993 3.1639,-8.7987 7.051,-13.198 -17.249,3.2726 -24.557,7.8707 -31.82,12.475 -5.2694,-5.0508 -0.30166,-9.3433 3.2543,-13.74 -13.006,4.817 -19.705,11.036 -26.758,17.175 -2.3912,-3.2271 -6.0749,-5.5924 -1.6272,-13.379 -9.2342,5.3227 -16.189,11.595 -21.334,18.622 -5.7134,-3.6379 -3.4039,-8.613 -3.4351,-13.198 -9.5966,7.8065 -15.687,16.114 -23.142,24.226 -1.5017,-1.0934 -2.8166,-4.8017 -3.9775,-10.667 -22.895,22.212 -55.246,78.157996 -8.3165,100.339996 39.919,-32.947 87.616,-56.887996 140.48,-74.848996 z"
     id="path8"
     inkscape:connector-curvature="0"
     style="fill:#75a928" />
  <path
     d="m 283.10451,443.29004 c -26.28197,-0.55712 -51.18111,10.62253 -66.91846,29.92199 -1.42959,1.90965 -0.88236,2.28986 0.46838,3.54984 35.89528,30.83298 63.51872,69.93789 80.41191,113.84113 1.01364,2.43377 2.8015,1.4327 4.54955,1.07071 35.83645,-8.56637 61.08701,-38.51479 60.93003,-72.95789 0.23397,-40.90348 -35.09548,-74.44708 -79.44141,-75.42578 z"
     id="path10"
     style="fill:#bc1142;fill-opacity:1;stroke:none"
     inkscape:connector-curvature="0"
     sodipodi:nodetypes="ccccccc" />
  <path
     d="m 195.79006,293.98144 c -27.6434,1.00852 -54.92838,17.83619 -71.44367,44.06198 -16.1317,25.61667 -19.55719,56.33962 -9.13939,80.93979 0.885,1.69937 1.72172,1.99085 3.10112,2.49539 24.16161,7.88557 47.15882,18.88436 68.39584,32.70891 3.18124,2.31737 5.36736,1.91679 8.34683,1.3183 30.26893,-8.43933 55.9366,-34.56513 65.19217,-66.87182 9.72384,-33.94116 -0.71441,-67.55823 -26.17947,-84.3127 -11.09156,-7.26684 -24.32292,-10.84139 -38.27343,-10.33985 z"
     id="path12"
     style="fill:#bc1142;fill-opacity:1;stroke:none"
     inkscape:connector-curvature="0"
     sodipodi:nodetypes="csccccscc" />
  <path
     d="M 325.0865,300.32119 A 86.129674,72.998839 55.965774 1 0 420.05434,444.03345 86.129674,72.998839 55.965774 1 0 325.0865,300.32119 Z"
     id="path14"
     inkscape:connector-curvature="0"
     style="fill:#bc1142" />
  <path
     d="m 68.752943,340.0166 c -1.021273,-0.0168 -2.100469,0.12273 -3.238282,0.42773 -27.381927,15.6362 -40.193005,39.95395 -42.987518,64.3112 -0.230742,2.07071 0.268651,2.04465 1.854604,2.07522 0.907441,-0.0328 1.815037,-0.0613 2.722758,-0.0856 17.530273,0.0449 35.018616,1.66329 52.248831,4.83448 1.79781,0.32634 1.9829,0.0922 2.2678,-1.32087 4.82248,-34.84244 2.42272,-69.99005 -12.868193,-70.24212 z"
     id="path16"
     style="fill:#bc1142;fill-opacity:1;stroke:none"
     inkscape:connector-curvature="0"
     sodipodi:nodetypes="cccccccsc" />
  <path
     d="m 486.28451,338.44449 c -36.414,-9.7569 -12.292,150.64 17.333,137.48 32.587,-26.213 43.083,-102.98 -17.333,-137.48 z"
     id="path18"
     inkscape:connector-curvature="0"
     style="fill:#bc1142" />
  <path
     d="m 362.57451,219.00449 c 62.835,-10.61 115.12,26.722 113.01,94.858 -2.0669,26.121 -136.16,-90.969 -113.01,-94.858 z"
     id="path20"
     inkscape:connector-curvature="0"
     style="fill:#bc1142" />
  <path
     d="m 188.96451,217.00449 c -62.84,-10.61 -115.120005,26.73 -113.010004,94.86 2.067,26.12 136.160004,-90.97 113.010004,-94.86 z"
     id="path22"
     inkscape:connector-curvature="0"
     style="fill:#bc1142" />
  <path
     d="m 279.22451,201.11449 c -37.503,-0.97548 -73.495,27.834 -73.582,44.544 -0.10462,20.304 29.651,41.093 73.837,41.62 45.123,0.32321 73.916,-16.64 74.061,-37.594 0.16484,-23.74 -41.039,-48.937 -74.317,-48.571 z"
     id="path24"
     inkscape:connector-curvature="0"
     style="fill:#bc1142" />
  <path
     d="m 307.11815,621.91349 c 5.05884,19.74243 7.95938,39.96342 8.65155,60.31676 0.0666,3.07154 1.38641,2.02068 3.38893,1.10673 22.52378,-11.34052 39.36418,-29.47784 39.01229,-39.46687 -0.0624,-11.51141 -23.1814,-20.95866 -48.35544,-24.73461 -3.90609,-0.70071 -3.56243,-0.59492 -2.69733,2.77799 z"
     id="path26"
     style="fill:#bc1142;fill-opacity:1;stroke:none"
     inkscape:connector-curvature="0"
     sodipodi:nodetypes="cccccc" />
  <path
     d="m 397.62451,514.56449 c -25.187,29.502 -39.212,83.31 -20.838,100.64 17.568,13.464 64.729,11.582 99.566,-36.756 25.296,-32.465 16.82,-86.682 2.3708,-101.08 -21.464,-16.602 -52.277,4.6449 -81.099,37.188 z"
     id="path30"
     inkscape:connector-curvature="0"
     style="fill:#bc1142" />
  <path
     style="fill:#bc1142;fill-opacity:1;stroke:none;stroke-width:0.2;stroke-miterlimit:4;stroke-dasharray:none;stroke-opacity:1"
     d="m 20.766075,451.92905 0,30.68787 c 0,7.15319 1.856593,9.81765 9.045539,10.12924 102.758066,4.5407 185.513266,86.05358 192.016866,188.2899 0.73978,10.71498 2.69257,13.03389 12.00168,12.98478 l 24.49956,0 c 10.84305,0.0206 12.0281,-3.47756 10.61743,-22.67432 C 257.7738,547.46691 155.94315,449.73313 30.311642,445.00159 c -6.59411,0.0661 -9.545567,1.84491 -9.545567,6.92746 z"
     id="path4170-6"
     inkscape:connector-curvature="0"
     sodipodi:nodetypes="ccccccccc" />
  <path
     style="fill:#bc1142;fill-opacity:1;stroke:none;stroke-width:0.2;stroke-miterlimit:4;stroke-dasharray:none;stroke-opacity:1"
     d="m 20.766075,545.09208 0,25.89953 c 0,8.7168 1.012619,10.72605 10.779121,11.64151 51.738125,4.94451 93.195874,45.11709 100.108654,96.2557 1.53281,13.5235 2.71572,15.28351 11.17799,15.13202 l 24.77954,0 c 8.70431,0 11.25503,-1.93471 10.62559,-14.82292 -7.0709,-76.07014 -68.01535,-136.50885 -144.31093,-142.79374 -11.247209,-0.90722 -13.159965,1.57534 -13.159965,8.6879 z"
     id="path4168-7"
     inkscape:connector-curvature="0"
     sodipodi:nodetypes="ccccccccc" />
  <path
     style="fill:#bc1142;fill-opacity:1;stroke:none;stroke-width:0.2;stroke-miterlimit:4;stroke-dasharray:none;stroke-opacity:1"
     d="m 21.025657,634.69043 0,48.15911 c 0.114434,9.0189 1.917169,10.96647 8.828269,10.96647 l 48.29911,0 c 11.298254,0.0949 12.135707,-3.07193 10.288854,-12.65932 -5.261426,-28.19308 -27.771191,-50.31681 -56.162139,-55.004 -8.191234,-0.84152 -11.254094,-0.26653 -11.254094,8.53774 z"
     id="path4179-5"
     inkscape:connector-curvature="0"
     sodipodi:nodetypes="ccccccc" />
</svg>
